# xmcd
#
# Track frame offsets:
#	150
#	20410
#	38440
#	57938
#	84276
#	89397
#	105559
#	125510
#	144785
#	162938
#	183788
#	198232
#
# Disc length: 2867 seconds
#
# Revision: 1
# Processed by: cddbd v1.4b41PL1 Copyright (c) Steve Scherf et al.
# Submitted via: audiograbber 1.80
#
DISCID=880b310c
DTITLE=Trond Grandlund - Østkantfolk
DYEAR=1900
DGENRE=
TTITLE0=Vinden Har Fortalt
TTITLE1=Fra Hånd Til Munn
TTITLE2=Det Lyste Over Eldorado
TTITLE3=Det Går Bedre Nå
TTITLE4=Blikkenslager Evensen
TTITLE5=Selma and Klas
TTITLE6=Den Dokka Amy
TTITLE7=Vålerenga kjerke
TTITLE8=Jovist
TTITLE9=Andres Sko
TTITLE10=Gardermobanen
TTITLE11=losbylinna
EXTD=
EXTT0=
EXTT1=
EXTT2=
EXTT3=
EXTT4=
EXTT5=
EXTT6=
EXTT7=
EXTT8=
EXTT9=
EXTT10=
EXTT11=
PLAYORDER=
